<?xml version="1.0" encoding="utf-8"?><svg xmlns="http://www.w3.org/2000/svg" xmlns:xlink="http://www.w3.org/1999/xlink" width="1518" height="343" preserveAspectRatio="xMidYMid" viewBox="0 0 1518 343" style="z-index:1;margin-right:-2px;display:block;background-repeat-y:initial;background-repeat-x:initial;animation-play-state:paused" ><g transform="translate(759,171.5) scale(1,-1) translate(-759,-171.5)" style="transform:matrix(1, 0, 0, -1, 0, 343);animation-play-state:paused" ><linearGradient id="lg-0.14912831091225454" x1="0" x2="1" y1="0" y2="0" style="animation-play-state:paused" ><stop stop-color="#31395a" offset="0" style="animation-play-state:paused" ></stop>

  
<stop stop-color="#1d2031" offset="1" style="animation-play-state:paused" ></stop></linearGradient>
<path d="M 0 0 M 0 237.788 Q 126.5 256.823 253 247.367 T 506 228.707 T 759 241.701 T 1012 247.688 T 1265 255.468 T 1518 232.702 L 1518 113.66 Q 1391.5 83.1038 1265 81.854 T 1012 115.621 T 759 76.5153 T 506 76.5198 T 253 114.013 T 0 108.916 Z" fill="url(#lg-0.14912831091225454)" opacity="0.33" style="opacity:0.33;animation-play-state:paused" ></path>
<path d="M 0 0 M 0 250.292 Q 126.5 239.493 253 236.244 T 506 233.127 T 759 237.352 T 1012 259.262 T 1265 244.428 T 1518 254.329 L 1518 95.6616 Q 1391.5 96.4763 1265 92.2338 T 1012 80.0002 T 759 94.9606 T 506 111.477 T 253 98.8507 T 0 104.268 Z" fill="url(#lg-0.14912831091225454)" opacity="0.33" style="opacity:0.33;animation-play-state:paused" ></path>
<path d="M 0 0 M 0 241.029 Q 126.5 268.657 253 266.096 T 506 230.535 T 759 255.233 T 1012 266.468 T 1265 246.94 T 1518 260.663 L 1518 81.0386 Q 1391.5 81.5636 1265 76.283 T 1012 102.619 T 759 82.706 T 506 112.432 T 253 94.619 T 0 107.46 Z" fill="url(#lg-0.14912831091225454)" opacity="0.33" style="opacity:0.33;animation-play-state:paused" ></path>
<path d="M 0 0 M 0 263.793 Q 126.5 264.293 253 255.707 T 506 236.493 T 759 265.935 T 1012 255.531 T 1265 263.383 T 1518 235.563 L 1518 88.7113 Q 1391.5 114.482 1265 110.624 T 1012 112.728 T 759 91.3177 T 506 102.081 T 253 78.1677 T 0 83.1305 Z" fill="url(#lg-0.14912831091225454)" opacity="0.33" style="opacity:0.33;animation-play-state:paused" ></path>
<path d="M 0 0 M 0 238.345 Q 126.5 250.999 253 243.499 T 506 241.177 T 759 245.08 T 1012 235.982 T 1265 257.066 T 1518 266.187 L 1518 99.1903 Q 1391.5 97.5342 1265 90.9295 T 1012 104.958 T 759 90.8763 T 506 101.078 T 253 94.808 T 0 88.0479 Z" fill="url(#lg-0.14912831091225454)" opacity="0.33" style="opacity:0.33;animation-play-state:paused" ></path></g></svg>