<?xml version="1.0" standalone="no"?>
<svg xmlns:xlink="http://www.w3.org/1999/xlink" id="wave" style="transform:rotate(180deg); transition: 0.3s" viewBox="0 0 1440 490" version="1.1" xmlns="http://www.w3.org/2000/svg"><defs><linearGradient id="sw-gradient-0" x1="0" x2="0" y1="1" y2="0"><stop stop-color="rgba(33.676, 85.302, 136.927, 1)" offset="0%"/><stop stop-color="rgba(23.561, 30.155, 36.749, 1)" offset="100%"/></linearGradient></defs><path style="transform:translate(0, 0px); opacity:1" fill="url(#sw-gradient-0)" d="M0,147L80,122.5C160,98,320,49,480,57.2C640,65,800,131,960,138.8C1120,147,1280,98,1440,138.8C1600,180,1760,310,1920,302.2C2080,294,2240,147,2400,106.2C2560,65,2720,131,2880,130.7C3040,131,3200,65,3360,98C3520,131,3680,261,3840,261.3C4000,261,4160,131,4320,114.3C4480,98,4640,196,4800,228.7C4960,261,5120,229,5280,204.2C5440,180,5600,163,5760,196C5920,229,6080,310,6240,310.3C6400,310,6560,229,6720,212.3C6880,196,7040,245,7200,261.3C7360,278,7520,261,7680,245C7840,229,8000,212,8160,228.7C8320,245,8480,294,8640,318.5C8800,343,8960,343,9120,285.8C9280,229,9440,114,9600,57.2C9760,0,9920,0,10080,49C10240,98,10400,196,10560,228.7C10720,261,10880,229,11040,245C11200,261,11360,327,11440,359.3L11520,392L11520,490L11440,490C11360,490,11200,490,11040,490C10880,490,10720,490,10560,490C10400,490,10240,490,10080,490C9920,490,9760,490,9600,490C9440,490,9280,490,9120,490C8960,490,8800,490,8640,490C8480,490,8320,490,8160,490C8000,490,7840,490,7680,490C7520,490,7360,490,7200,490C7040,490,6880,490,6720,490C6560,490,6400,490,6240,490C6080,490,5920,490,5760,490C5600,490,5440,490,5280,490C5120,490,4960,490,4800,490C4640,490,4480,490,4320,490C4160,490,4000,490,3840,490C3680,490,3520,490,3360,490C3200,490,3040,490,2880,490C2720,490,2560,490,2400,490C2240,490,2080,490,1920,490C1760,490,1600,490,1440,490C1280,490,1120,490,960,490C800,490,640,490,480,490C320,490,160,490,80,490L0,490Z"/></svg>